ffmpeg version 4.2.7-0ubuntu0.1 Copyright (c) 2000-2022 the FFmpeg developers
  built with gcc 9 (Ubuntu 9.4.0-1ubuntu1~20.04.1)
  configuration: --prefix=/usr --extra-version=0ubuntu0.1 --toolchain=hardened --libdir=/usr/lib/x86_64-linux-gnu --incdir=/usr/include/x86_64-linux-gnu --arch=amd64 --enable-gpl --disable-stripping --enable-avresample --disable-filter=resample --enable-avisynth --enable-gnutls --enable-ladspa --enable-libaom --enable-libass --enable-libbluray --enable-libbs2b --enable-libcaca --enable-libcdio --enable-libcodec2 --enable-libflite --enable-libfontconfig --enable-libfreetype --enable-libfribidi --enable-libgme --enable-libgsm --enable-libjack --enable-libmp3lame --enable-libmysofa --enable-libopenjpeg --enable-libopenmpt --enable-libopus --enable-libpulse --enable-librsvg --enable-librubberband --enable-libshine --enable-libsnappy --enable-libsoxr --enable-libspeex --enable-libssh --enable-libtheora --enable-libtwolame --enable-libvidstab --enable-libvorbis --enable-libvpx --enable-libwavpack --enable-libwebp --enable-libx265 --enable-libxml2 --enable-libxvid --enable-libzmq --enable-libzvbi --enable-lv2 --enable-omx --enable-openal --enable-opencl --enable-opengl --enable-sdl2 --enable-libdc1394 --enable-libdrm --enable-libiec61883 --enable-nvenc --enable-chromaprint --enable-frei0r --enable-libx264 --enable-shared
  libavutil      56. 31.100 / 56. 31.100
  libavcodec     58. 54.100 / 58. 54.100
  libavformat    58. 29.100 / 58. 29.100
  libavdevice    58.  8.100 / 58.  8.100
  libavfilter     7. 57.100 /  7. 57.100
  libavresample   4.  0.  0 /  4.  0.  0
  libswscale      5.  5.100 /  5.  5.100
  libswresample   3.  5.100 /  3.  5.100
  libpostproc    55.  5.100 / 55.  5.100
Routing option strict to both codec and muxer layer
[h264 @ 0x55d907098000] Reinit context to 288x640, pix_fmt: yuv420p
Input #0, mov,mp4,m4a,3gp,3g2,mj2, from '/var/www/html/project/media/video/original/VID-20230614-WA0006.mp4':
  Metadata:
    major_brand     : mp42
    minor_version   : 0
    compatible_brands: mp42isom
  Duration: 00:00:13.40, start: 0.000000, bitrate: 1593 kb/s
    Stream #0:0(und): Video: h264 (High), 1 reference frame (avc1 / 0x31637661), yuv420p(tv, (null), left), 288x640, 1334 kb/s, 29.33 fps, 30 tbr, 90k tbn, 180k tbc (default)
    Stream #0:1(und): Audio: aac (LC) (mp4a / 0x6134706D), 48000 Hz, stereo, fltp, 256 kb/s (default)
Input #1, png_pipe, from '/var/www/html/project/static/images/templates/logo_vertical.png':
  Duration: N/A, bitrate: N/A
    Stream #1:0: Video: png, 1 reference frame, rgba(pc), 1920x1080 [SAR 2835:2835 DAR 16:9], 25 tbr, 25 tbn, 25 tbc
[Parsed_scale_1 @ 0x55d9070a95c0] w:1920 h:1080 flags:'bilinear' interl:0
[Parsed_scale_4 @ 0x55d9070c6200] w:-1 h:1080 flags:'bilinear' interl:0
[Parsed_scale_6 @ 0x55d9070f36c0] w:1920 h:1080 flags:'bilinear' interl:0
Stream mapping:
  Stream #0:0 (h264) -> split (graph 0)
  Stream #1:0 (png) -> scale (graph 0)
  overlay (graph 0) -> Stream #0:0 (libx264)
  Stream #0:1 -> #0:1 (aac (native) -> aac (native))
Press [q] to stop, [?] for help
[h264 @ 0x55d9070d1fc0] Reinit context to 288x640, pix_fmt: yuv420p
[graph_1_in_0_1 @ 0x55d9074fa400] tb:1/48000 samplefmt:fltp samplerate:48000 chlayout:0x3
[Parsed_scale_1 @ 0x55d90763fc00] w:1920 h:1080 flags:'bilinear' interl:0
[Parsed_scale_4 @ 0x55d907642180] w:-1 h:1080 flags:'bilinear' interl:0
[Parsed_scale_6 @ 0x55d907642bc0] w:1920 h:1080 flags:'bilinear' interl:0
[graph 0 input from stream 0:0 @ 0x55d907644500] w:288 h:640 pixfmt:yuv420p tb:1/90000 fr:30/1 sar:0/1 sws_param:flags=2
[graph 0 input from stream 1:0 @ 0x55d907645540] w:1920 h:1080 pixfmt:rgba tb:1/25 fr:25/1 sar:2835/2835 sws_param:flags=2
[Parsed_scale_1 @ 0x55d90763fc00] w:288 h:640 fmt:yuv420p sar:0/1 -> w:1920 h:1080 fmt:yuv420p sar:0/1 flags:0x2
[Parsed_boxblur_2 @ 0x55d90763fa40] luma_radius:54 luma_power:1 chroma_radius:27 chroma_power:1 alpha_radius:54 alpha_power:1 w:1920 chroma_w:960 h:1080 chroma_h:540
[Parsed_setsar_3 @ 0x55d907641bc0] w:1920 h:1080 sar:0/1 dar:16/9 -> sar:1/1 dar:16/9
[Parsed_scale_4 @ 0x55d907642180] w:288 h:640 fmt:yuv420p sar:0/1 -> w:486 h:1080 fmt:yuva420p sar:0/1 flags:0x2
[Parsed_setsar_5 @ 0x55d907640fc0] w:486 h:1080 sar:0/1 dar:9/20 -> sar:1/1 dar:9/20
[Parsed_overlay_8 @ 0x55d907640d80] main w:1920 h:1080 fmt:yuv420p overlay w:486 h:1080 fmt:yuva420p
[Parsed_overlay_8 @ 0x55d907640d80] [framesync @ 0x55d9076409e8] Selected 1/90000 time base
[Parsed_overlay_8 @ 0x55d907640d80] [framesync @ 0x55d9076409e8] Sync level 2
[Parsed_scale_6 @ 0x55d907642bc0] w:1920 h:1080 fmt:rgba sar:2835/2835 -> w:1920 h:1080 fmt:yuva420p sar:1/1 flags:0x2
[Parsed_setsar_7 @ 0x55d907642e40] w:1920 h:1080 sar:1/1 dar:16/9 -> sar:1/1 dar:16/9
[Parsed_overlay_9 @ 0x55d907642980] main w:1920 h:1080 fmt:yuv420p overlay w:1920 h:1080 fmt:yuva420p
[Parsed_overlay_9 @ 0x55d907642980] [framesync @ 0x55d907643b28] Selected 1/90000 time base
[Parsed_overlay_9 @ 0x55d907642980] [framesync @ 0x55d907643b28] Sync level 2
[libx264 @ 0x55d907134d80] using SAR=1/1
[libx264 @ 0x55d907134d80] using cpu capabilities: MMX2 SSE2Fast SSSE3 SSE4.2 AVX FMA3 BMI2 AVX2
[libx264 @ 0x55d907134d80] profile High, level 4.0
[libx264 @ 0x55d907134d80] 264 - core 155 r2917 0a84d98 - H.264/MPEG-4 AVC codec - Copyleft 2003-2018 - http://www.videolan.org/x264.html - options: cabac=1 ref=1 deblock=1:0:0 analyse=0x3:0x113 me=hex subme=2 psy=1 psy_rd=1.00:0.00 mixed_ref=0 me_range=16 chroma_me=1 trellis=0 8x8dct=1 cqm=0 deadzone=21,11 fast_pskip=1 chroma_qp_offset=0 threads=24 lookahead_threads=8 sliced_threads=0 nr=0 decimate=1 interlaced=0 bluray_compat=0 constrained_intra=0 bframes=3 b_pyramid=2 b_adapt=1 b_bias=0 direct=1 weightb=1 open_gop=0 weightp=1 keyint=250 keyint_min=25 scenecut=40 intra_refresh=0 rc_lookahead=10 rc=crf mbtree=1 crf=18.0 qcomp=0.60 qpmin=0 qpmax=69 qpstep=4 ip_ratio=1.40 aq=1:1.00
Output #0, mp4, to '/var/www/html/project/media/video/watermarks/VID-20230614-WA0006.mp4':
  Metadata:
    major_brand     : mp42
    minor_version   : 0
    compatible_brands: mp42isom
    encoder         : Lavf58.29.100
    Stream #0:0: Video: h264 (libx264), 1 reference frame (avc1 / 0x31637661), yuv420p, 1920x1080 [SAR 1:1 DAR 16:9], q=-1--1, 30 fps, 15360 tbn, 30 tbc (default)
    Metadata:
      encoder         : Lavc58.54.100 libx264
    Side data:
      cpb: bitrate max/min/avg: 0/0/0 buffer size: 0 vbv_delay: -1
    Stream #0:1(und): Audio: aac (LC) (mp4a / 0x6134706D), 48000 Hz, stereo, fltp, delay 1024, 128 kb/s (default)
    Metadata:
      encoder         : Lavc58.54.100 aac
[Parsed_overlay_8 @ 0x55d907640d80] [framesync @ 0x55d9076409e8] Sync level 1
[Parsed_overlay_8 @ 0x55d907640d80] [framesync @ 0x55d9076409e8] Sync level 0
[Parsed_overlay_9 @ 0x55d907642980] [framesync @ 0x55d907643b28] Sync level 0
No more output streams to write to, finishing.
frame=  393 fps= 18 q=-1.0 Lsize=   13180kB time=00:00:13.33 bitrate=8097.7kbits/s speed=0.608x    
[AVIOContext @ 0x55d907096280] Statistics: 0 seeks, 41 writeouts
video:12941kB audio:224kB subtitle:0kB other streams:0kB global headers:0kB muxing overhead: 0.114135%
Input file #0 (/var/www/html/project/media/video/original/VID-20230614-WA0006.mp4):
  Input stream #0:0 (video): 393 packets read (2234227 bytes); 393 frames decoded; 
  Input stream #0:1 (audio): 625 packets read (426667 bytes); 625 frames decoded (640000 samples); 
  Total: 1018 packets (2660894 bytes) demuxed
Input file #1 (/var/www/html/project/static/images/templates/logo_vertical.png):
  Input stream #1:0 (video): 1 packets read (93903 bytes); 1 frames decoded; 
  Total: 1 packets (93903 bytes) demuxed
Output file #0 (/var/www/html/project/media/video/watermarks/VID-20230614-WA0006.mp4):
  Output stream #0:0 (video): 393 frames encoded; 393 packets muxed (13251290 bytes); 
  Output stream #0:1 (audio): 625 frames encoded (640000 samples); 626 packets muxed (229198 bytes); 
  Total: 1019 packets (13480488 bytes) muxed
[AVIOContext @ 0x55d9070e8a80] Statistics: 2 seeks, 55 writeouts
[libx264 @ 0x55d907134d80] frame I:3     Avg QP:15.89  size: 97153
[libx264 @ 0x55d907134d80] frame P:193   Avg QP:17.85  size: 43545
[libx264 @ 0x55d907134d80] frame B:197   Avg QP:19.25  size: 23121
[libx264 @ 0x55d907134d80] consecutive B-frames: 26.5% 15.3% 14.5% 43.8%
[libx264 @ 0x55d907134d80] mb I  I16..4: 40.9% 32.9% 26.1%
[libx264 @ 0x55d907134d80] mb P  I16..4: 27.0% 19.1%  3.2%  P16..4: 17.9%  9.5%  4.9%  0.0%  0.0%    skip:18.5%
[libx264 @ 0x55d907134d80] mb B  I16..4:  6.2%  2.3%  0.2%  B16..8: 23.0%  9.7%  1.6%  direct:10.8%  skip:46.2%  L0:42.4% L1:45.1% BI:12.5%
[libx264 @ 0x55d907134d80] 8x8 transform intra:36.7% inter:30.5%
[libx264 @ 0x55d907134d80] coded y,uvDC,uvAC intra: 23.3% 24.7% 3.3% inter: 14.4% 17.3% 0.9%
[libx264 @ 0x55d907134d80] i16 v,h,dc,p: 26% 46%  7% 22%
[libx264 @ 0x55d907134d80] i8 v,h,dc,ddl,ddr,vr,hd,vl,hu: 10% 54% 16%  2%  3%  2%  6%  2%  4%
[libx264 @ 0x55d907134d80] i4 v,h,dc,ddl,ddr,vr,hd,vl,hu: 18% 34% 15%  4%  6%  4%  9%  3%  7%
[libx264 @ 0x55d907134d80] i8c dc,h,v,p: 59% 25%  9%  8%
[libx264 @ 0x55d907134d80] Weighted P-Frames: Y:0.0% UV:0.0%
[libx264 @ 0x55d907134d80] kb/s:7910.81
[aac @ 0x55d9070c9fc0] Qavg: 1074.108
[AVIOContext @ 0x55d90709f240] Statistics: 2693682 bytes read, 2 seeks
[AVIOContext @ 0x55d9070aa3c0] Statistics: 93903 bytes read, 0 seeks
